<svg xmlns="http://www.w3.org/2000/svg" width="48" height="48" fill="none" viewBox="0 0 48 48"><g clip-path="url(#clip0_656_27784)"><path fill="#E9ECEF" d="M24.8113 22.6226C30.23 22.6226 34.6226 18.23 34.6226 12.8113C34.6226 7.39268 30.23 3 24.8113 3C19.3927 3 15 7.39268 15 12.8113C15 18.23 19.3927 22.6226 24.8113 22.6226Z"/><path fill="#CED4DA" d="M41.6604 39.4833C41.6604 35.3986 39.5722 31.4813 36.4863 28.593C33.4005 25.7047 29.2152 24.082 24.8511 24.082C20.4871 24.082 16.3018 25.7047 13.2159 28.593C10.1301 31.4813 8.39648 35.3986 8.39648 39.4833"/><path stroke="#CED4DA" stroke-linecap="round" stroke-linejoin="round" stroke-width="2" d="M41.6604 39.4833C41.6604 35.3986 39.5722 31.4813 36.4863 28.593C33.4005 25.7047 29.2152 24.082 24.8511 24.082C20.4871 24.082 16.3018 25.7047 13.2159 28.593C10.1301 31.4813 8.39648 35.3986 8.39648 39.4833C10.5708 47.729 38.3358 49.5686 41.6604 39.4833Z"/><path fill="#CED4DA" d="M41.4427 37.888C41.9639 39.9507 39.7091 42.6049 36.6233 44.3074C33.5374 46.0099 29.8569 46.6995 25.4928 46.6995C21.1288 46.6995 16.9435 45.743 13.8576 44.0405C10.6678 42.8396 7.44345 39.8189 9.03816 37.6211L25.4928 37.6211L41.4427 37.888Z"/></g><defs><clipPath id="clip0_656_27784"><rect width="47.094" height="47.094" fill="#fff" transform="translate(0.452881 0.820312)"/></clipPath></defs></svg>