<svg xmlns="http://www.w3.org/2000/svg" width="462" height="536" fill="none" viewBox="0 0 462 536"><path fill="#fff" stroke="#E5E5E5" stroke-width="1.656" d="M0.827922 13.2468C0.827922 6.38804 6.38802 0.827922 13.2468 0.827922H741.818C748.677 0.827922 754.237 6.38802 754.237 13.2468V628.393H0.827922V13.2468Z"/><path fill="#F5F5F5" stroke="#E5E5E5" stroke-width="1.656" d="M0.827922 13.2468C0.827922 6.38802 6.38802 0.827922 13.2468 0.827922H672.273C677.302 0.827922 681.38 4.90533 681.38 9.93507V32.289H0.827922V13.2468Z"/><line x1="166.414" x2="166.414" y1="33.116" y2="629.22" stroke="#E5E5E5" stroke-width="1.656"/><line x1="0" x2="695.455" y1="32.288" y2="32.288" stroke="#E5E5E5" stroke-width="1.656"/><rect width="119.221" height="19.87" x="13.25" y="46.363" fill="#E5E5E5" rx="3.312"/><rect width="129.156" height="13.247" x="13.25" y="86.103" fill="#F1F1F1" rx="3.312"/><rect width="102.662" height="13.247" x="13.25" y="115.908" fill="#F1F1F1" rx="3.312"/><rect width="86.104" height="13.247" x="13.25" y="175.519" fill="#F1F1F1" rx="3.312"/><rect width="112.597" height="13.247" x="13.25" y="264.935" fill="#F1F1F1" rx="3.312"/><rect width="115.909" height="13.247" x="13.25" y="145.714" fill="#F1F1F1" rx="3.312"/><rect width="96.039" height="13.247" x="13.25" y="205.324" fill="#F1F1F1" rx="3.312"/><rect width="125.844" height="13.247" x="13.25" y="235.129" fill="#F1F1F1" rx="3.312"/><rect width="19.87" height="19.87" x="139.094" y="46.363" fill="#E5E5E5" rx="9.935"/><rect width="168.896" height="13.247" x="215.266" y="145.715" fill="#E5E5E5" rx="3.312"/><rect width="43.052" height="13.247" x="397.406" y="145.715" fill="#3F76FF" rx="3.312"/><rect width="437.143" height="13.247" x="215.266" y="175.521" fill="#F1F1F1" rx="3.312"/><rect width="321.234" height="13.247" x="215.266" y="198.702" fill="#F1F1F1" rx="3.312"/><rect width="172.208" height="13.247" x="245.07" y="251.688" fill="#F1F1F1" rx="3.312"/><rect width="258.312" height="13.247" x="245.07" y="288.117" fill="#F1F1F1" rx="3.312"/><rect width="235.13" height="13.247" x="245.07" y="324.546" fill="#F1F1F1" rx="3.312"/><rect width="192.078" height="13.247" x="245.07" y="360.975" fill="#F1F1F1" rx="3.312"/><rect width="19.87" height="13.247" x="427.219" y="251.688" fill="#F1F1F1" rx="3.312"/><rect width="19.87" height="13.247" x="447.078" y="360.975" fill="#F1F1F1" rx="3.312"/><rect width="19.87" height="19.87" x="215.266" y="248.378" fill="#E5E5E5" rx="9.935"/><rect width="19.87" height="19.87" x="215.266" y="284.806" fill="#E5E5E5" rx="9.935"/><rect width="19.87" height="19.87" x="215.266" y="321.234" fill="#E5E5E5" rx="9.935"/><rect width="19.87" height="19.87" x="215.266" y="357.663" fill="#E5E5E5" rx="9.935"/><rect width="39.74" height="39.74" x="215.266" y="86.105" fill="#D4D4D4" rx="19.87"/><rect width="9.935" height="9.935" x="13.242" y="13.247" fill="#EF4444" rx="4.968"/><rect width="9.935" height="9.935" x="26.492" y="13.247" fill="#FCD34D" rx="4.968"/><rect width="9.935" height="9.935" x="39.742" y="13.247" fill="#4ADE80" rx="4.968"/></svg>