<svg xmlns="http://www.w3.org/2000/svg" width="201" height="150" fill="none" viewBox="0 0 201 150"><mask id="mask0_2267_36125" style="mask-type:alpha" width="101" height="150" x="0" y="0" maskUnits="userSpaceOnUse"><rect width="101" height="150" fill="#D9D9D9"/></mask><g mask="url(#mask0_2267_36125)"><path fill="#231035" stroke="#3F2B58" stroke-width=".5" d="M1.25 4.00001C1.25 1.92894 2.92893 0.25 5 0.25H225C227.071 0.25 228.75 1.92893 228.75 4V189.75H1.25V4.00001Z"/><path fill="#32184C" d="M2 4C2 2.34315 3.34315 1 5 1H204C205.657 1 207 2.34315 207 4V10H2V4Z"/><line x1="51.25" x2="51.25" y1="10" y2="190" stroke="#3F2B58" stroke-width=".5"/><line x1="1" x2="211" y1="9.75" y2="9.75" stroke="#3F2B58" stroke-width=".5"/><rect width="36" height="6" x="5" y="14" fill="#572D81" rx="1"/><rect width="39" height="4" x="5" y="26" fill="#371B52" rx="1"/><rect width="31" height="4" x="5" y="35" fill="#371B52" rx="1"/><rect width="26" height="4" x="5" y="53" fill="#371B52" rx="1"/><rect width="34" height="4" x="5" y="80" fill="#371B52" rx="1"/><rect width="35" height="4" x="5" y="44" fill="#371B52" rx="1"/><rect width="29" height="4" x="5" y="62" fill="#371B52" rx="1"/><rect width="38" height="4" x="5" y="71" fill="#371B52" rx="1"/><rect width="6" height="6" x="43" y="14" fill="#572D81" rx="3"/><rect width="51" height="4" x="66" y="44" fill="#572D81" rx="1"/><rect width="132" height="4" x="66" y="53" fill="#371B52" rx="1"/><rect width="97" height="4" x="66" y="60" fill="#371B52" rx="1"/><rect width="52" height="4" x="75" y="76" fill="#371B52" rx="1"/><rect width="78" height="4" x="75" y="87" fill="#371B52" rx="1"/><rect width="71" height="4" x="75" y="98" fill="#371B52" rx="1"/><rect width="58" height="4" x="75" y="109" fill="#371B52" rx="1"/><rect width="6" height="6" x="66" y="75" fill="#401E60" rx="3"/><rect width="6" height="6" x="66" y="86" fill="#401E60" rx="3"/><rect width="6" height="6" x="66" y="97" fill="#401E60" rx="3"/><rect width="6" height="6" x="66" y="108" fill="#401E60" rx="3"/><rect width="12" height="12" x="66" y="26" fill="#572D81" rx="6"/><rect width="3" height="3" x="5" y="4" fill="#EF4444" rx="1.5"/><rect width="3" height="3" x="9" y="4" fill="#FCD34D" rx="1.5"/><rect width="3" height="3" x="13" y="4" fill="#4ADE80" rx="1.5"/></g><mask id="mask1_2267_36125" style="mask-type:alpha" width="100" height="150" x="101" y="0" maskUnits="userSpaceOnUse"><rect width="100" height="150" x="101" fill="#D9D9D9"/></mask><g mask="url(#mask1_2267_36125)"><path fill="#000C1B" stroke="#172534" d="M0.5 4.00001C0.5 2.06701 2.067 0.5 4 0.5H224C225.933 0.5 227.5 2.067 227.5 4V189.5H0.5V4.00001Z"/><path fill="#001936" d="M1 4C1 2.34315 2.34315 1 4 1H203C204.657 1 206 2.34315 206 4V10H1V4Z"/><line x1="0" x2="210" y1="9.75" y2="9.75" stroke="#172534" stroke-width=".5"/><rect width="51" height="4" x="65" y="44" fill="#172B52" rx="1"/><rect width="132" height="4" x="65" y="53" fill="#151E3D" rx="1"/><rect width="97" height="4" x="65" y="60" fill="#151E3D" rx="1"/><rect width="52" height="4" x="74" y="76" fill="#151E3D" rx="1"/><rect width="78" height="4" x="74" y="87" fill="#151E3D" rx="1"/><rect width="71" height="4" x="74" y="98" fill="#151E3D" rx="1"/><rect width="58" height="4" x="74" y="109" fill="#151E3D" rx="1"/><rect width="6" height="4" x="129" y="76" fill="#151E3D" rx="1"/><rect width="6" height="4" x="155" y="87" fill="#151E3D" rx="1"/><rect width="6" height="4" x="148" y="98" fill="#151E3D" rx="1"/><rect width="6" height="4" x="135" y="109" fill="#151E3D" rx="1"/></g></svg>