<svg xmlns="http://www.w3.org/2000/svg" width="201" height="151" fill="none" viewBox="0 0 201 151"><path fill="#171717" stroke="#fff" stroke-width=".5" d="M0.25 4.00001C0.25 1.92894 1.92893 0.25 4 0.25H224C226.071 0.25 227.75 1.92893 227.75 4V189.75H0.25V4.00001Z"/><path fill="#171717" d="M1 4C1 2.34315 2.34315 1 4 1H203C204.657 1 206 2.34315 206 4V10H1V4Z"/><line x1="50.25" x2="50.25" y1="10" y2="190" stroke="#fff" stroke-width=".5"/><line x1="0" x2="210" y1="9.75" y2="9.75" stroke="#fff" stroke-width=".5"/><rect width="36" height="6" x="4" y="14" fill="#fff" rx="1"/><rect width="39" height="4" x="4" y="26" fill="#D4D4D4" rx="1"/><rect width="31" height="4" x="4" y="35" fill="#D4D4D4" rx="1"/><rect width="26" height="4" x="4" y="53" fill="#D4D4D4" rx="1"/><rect width="34" height="4" x="4" y="80" fill="#D4D4D4" rx="1"/><rect width="35" height="4" x="4" y="44" fill="#D4D4D4" rx="1"/><rect width="29" height="4" x="4" y="62" fill="#D4D4D4" rx="1"/><rect width="38" height="4" x="4" y="71" fill="#D4D4D4" rx="1"/><rect width="6" height="6" x="42" y="14" fill="#fff" rx="3"/><rect width="51" height="4" x="65" y="44" fill="#F1F1F1" rx="1"/><rect width="132" height="4" x="65" y="53" fill="#D4D4D4" rx="1"/><rect width="97" height="4" x="65" y="60" fill="#D4D4D4" rx="1"/><rect width="52" height="4" x="74" y="76" fill="#D4D4D4" rx="1"/><rect width="78" height="4" x="74" y="87" fill="#D4D4D4" rx="1"/><rect width="71" height="4" x="74" y="98" fill="#D4D4D4" rx="1"/><rect width="58" height="4" x="74" y="109" fill="#D4D4D4" rx="1"/><rect width="6" height="4" x="129" y="76" fill="#D4D4D4" rx="1"/><rect width="6" height="4" x="155" y="87" fill="#D4D4D4" rx="1"/><rect width="6" height="4" x="148" y="98" fill="#D4D4D4" rx="1"/><rect width="6" height="4" x="135" y="109" fill="#D4D4D4" rx="1"/><rect width="6" height="6" x="65" y="75" fill="#fff" rx="3"/><rect width="6" height="6" x="65" y="86" fill="#fff" rx="3"/><rect width="6" height="6" x="65" y="97" fill="#fff" rx="3"/><rect width="6" height="6" x="65" y="108" fill="#fff" rx="3"/><rect width="12" height="12" x="65" y="26" fill="#F1F1F1" rx="6"/><rect width="3" height="3" x="4" y="4" fill="#EF4444" rx="1.5"/><rect width="3" height="3" x="8" y="4" fill="#FCD34D" rx="1.5"/><rect width="3" height="3" x="12" y="4" fill="#4ADE80" rx="1.5"/></svg>