<svg xmlns="http://www.w3.org/2000/svg" width="201" height="154" fill="none" viewBox="0 0 201 154"><g clip-path="url(#clip0_2273_36428)"><path fill="#121212" stroke="#262626" stroke-width=".5" d="M0.25 4.00001C0.25 1.92894 1.92893 0.25 4 0.25H224C226.071 0.25 227.75 1.92893 227.75 4V189.75H0.25V4.00001Z"/><path fill="#222" stroke="#222" stroke-width=".5" d="M0.25 4C0.25 1.92893 1.92893 0.25 4 0.25H203C204.519 0.25 205.75 1.48122 205.75 3V9.75H0.25V4Z"/><line x1="50.25" x2="50.25" y1="10" y2="190" stroke="#262626" stroke-width=".5"/><rect width="36" height="6" x="4" y="14" fill="#404040" rx="1"/><rect width="39" height="4" x="4" y="26" fill="#262626" rx="1"/><rect width="31" height="4" x="4" y="35" fill="#262626" rx="1"/><rect width="26" height="4" x="4" y="53" fill="#262626" rx="1"/><rect width="34" height="4" x="4" y="80" fill="#262626" rx="1"/><rect width="35" height="4" x="4" y="44" fill="#262626" rx="1"/><rect width="29" height="4" x="4" y="62" fill="#262626" rx="1"/><rect width="38" height="4" x="4" y="71" fill="#262626" rx="1"/><rect width="6" height="6" x="42" y="14" fill="#404040" rx="3"/><rect width="51" height="4" x="65" y="44" fill="#404040" rx="1"/><rect width="132" height="4" x="65" y="53" fill="#262626" rx="1"/><rect width="97" height="4" x="65" y="60" fill="#262626" rx="1"/><rect width="52" height="4" x="74" y="76" fill="#262626" rx="1"/><rect width="78" height="4" x="74" y="87" fill="#262626" rx="1"/><rect width="71" height="4" x="74" y="98" fill="#262626" rx="1"/><rect width="58" height="4" x="74" y="109" fill="#262626" rx="1"/><rect width="6" height="4" x="129" y="76" fill="#262626" rx="1"/><rect width="6" height="4" x="155" y="87" fill="#262626" rx="1"/><rect width="6" height="4" x="148" y="98" fill="#262626" rx="1"/><rect width="6" height="4" x="135" y="109" fill="#262626" rx="1"/><rect width="6" height="6" x="65" y="75" fill="#222" rx="3"/><rect width="6" height="6" x="65" y="86" fill="#222" rx="3"/><rect width="6" height="6" x="65" y="97" fill="#222" rx="3"/><rect width="6" height="6" x="65" y="108" fill="#222" rx="3"/><rect width="12" height="12" x="65" y="26" fill="#404040" rx="6"/><rect width="3" height="3" x="4" y="4" fill="#EF4444" rx="1.5"/><rect width="3" height="3" x="8" y="4" fill="#FCD34D" rx="1.5"/><rect width="3" height="3" x="12" y="4" fill="#4ADE80" rx="1.5"/><rect width="13" height="4" x="121" y="44" fill="#3F76FF" rx="1"/></g><defs><clipPath id="clip0_2273_36428"><rect width="201" height="154" fill="#fff"/></clipPath></defs></svg>